<mxfile host="app.diagrams.net" agent="Mozilla/5.0 (Macintosh; Intel Mac OS X 10_15_7) AppleWebKit/605.1.15 (KHTML, like Gecko) Version/18.4 Safari/605.1.15" version="27.0.9">
  <diagram name="Page-1" id="jLMV6RQMi38iWSR_o8Ul">
    <mxGraphModel dx="663" dy="546" grid="1" gridSize="10" guides="1" tooltips="1" connect="1" arrows="1" fold="1" page="1" pageScale="1" pageWidth="827" pageHeight="1169" math="0" shadow="0">
      <root>
        <mxCell id="0" />
        <mxCell id="1" parent="0" />
        <mxCell id="YWzn3XSEvazt2WfQ-sxx-9" value="" style="rounded=0;whiteSpace=wrap;html=1;dashed=1;dashPattern=8 8;" vertex="1" parent="1">
          <mxGeometry x="290" y="110" width="230" height="310" as="geometry" />
        </mxCell>
        <mxCell id="YWzn3XSEvazt2WfQ-sxx-14" style="edgeStyle=orthogonalEdgeStyle;rounded=0;orthogonalLoop=1;jettySize=auto;html=1;exitX=0.75;exitY=0;exitDx=0;exitDy=0;entryX=0.75;entryY=1;entryDx=0;entryDy=0;" edge="1" parent="1" source="YWzn3XSEvazt2WfQ-sxx-3" target="YWzn3XSEvazt2WfQ-sxx-1">
          <mxGeometry relative="1" as="geometry" />
        </mxCell>
        <mxCell id="YWzn3XSEvazt2WfQ-sxx-15" style="edgeStyle=orthogonalEdgeStyle;rounded=0;orthogonalLoop=1;jettySize=auto;html=1;exitX=0.25;exitY=1;exitDx=0;exitDy=0;entryX=0.25;entryY=0;entryDx=0;entryDy=0;" edge="1" parent="1" source="YWzn3XSEvazt2WfQ-sxx-3" target="YWzn3XSEvazt2WfQ-sxx-4">
          <mxGeometry relative="1" as="geometry" />
        </mxCell>
        <mxCell id="YWzn3XSEvazt2WfQ-sxx-16" style="edgeStyle=orthogonalEdgeStyle;rounded=0;orthogonalLoop=1;jettySize=auto;html=1;exitX=0.75;exitY=1;exitDx=0;exitDy=0;entryX=0.75;entryY=0;entryDx=0;entryDy=0;" edge="1" parent="1" source="YWzn3XSEvazt2WfQ-sxx-3" target="YWzn3XSEvazt2WfQ-sxx-4">
          <mxGeometry relative="1" as="geometry" />
        </mxCell>
        <mxCell id="YWzn3XSEvazt2WfQ-sxx-3" value="Controllers" style="rounded=0;whiteSpace=wrap;html=1;" vertex="1" parent="1">
          <mxGeometry x="310" y="194" width="190" height="40" as="geometry" />
        </mxCell>
        <mxCell id="YWzn3XSEvazt2WfQ-sxx-4" value="Services" style="rounded=0;whiteSpace=wrap;html=1;" vertex="1" parent="1">
          <mxGeometry x="310" y="260" width="190" height="50" as="geometry" />
        </mxCell>
        <mxCell id="YWzn3XSEvazt2WfQ-sxx-5" value="DAO" style="rounded=0;whiteSpace=wrap;html=1;" vertex="1" parent="1">
          <mxGeometry x="310" y="330" width="80" height="40" as="geometry" />
        </mxCell>
        <mxCell id="YWzn3XSEvazt2WfQ-sxx-6" value="Clients" style="rounded=0;whiteSpace=wrap;html=1;" vertex="1" parent="1">
          <mxGeometry x="414" y="330" width="80" height="40" as="geometry" />
        </mxCell>
        <mxCell id="YWzn3XSEvazt2WfQ-sxx-13" style="edgeStyle=orthogonalEdgeStyle;rounded=0;orthogonalLoop=1;jettySize=auto;html=1;exitX=0.25;exitY=1;exitDx=0;exitDy=0;entryX=0.25;entryY=0;entryDx=0;entryDy=0;" edge="1" parent="1" source="YWzn3XSEvazt2WfQ-sxx-1" target="YWzn3XSEvazt2WfQ-sxx-3">
          <mxGeometry relative="1" as="geometry" />
        </mxCell>
        <mxCell id="YWzn3XSEvazt2WfQ-sxx-1" value="Tomcat" style="rounded=0;whiteSpace=wrap;html=1;" vertex="1" parent="1">
          <mxGeometry x="310" y="130" width="190" height="40" as="geometry" />
        </mxCell>
        <mxCell id="YWzn3XSEvazt2WfQ-sxx-7" value="External&lt;div&gt;Services&lt;/div&gt;" style="rounded=0;whiteSpace=wrap;html=1;" vertex="1" parent="1">
          <mxGeometry x="540" y="130" width="100" height="250" as="geometry" />
        </mxCell>
        <mxCell id="YWzn3XSEvazt2WfQ-sxx-8" value="Database" style="rounded=0;whiteSpace=wrap;html=1;" vertex="1" parent="1">
          <mxGeometry x="170" y="130" width="90" height="250" as="geometry" />
        </mxCell>
        <mxCell id="YWzn3XSEvazt2WfQ-sxx-10" value="API Clients" style="rounded=0;whiteSpace=wrap;html=1;" vertex="1" parent="1">
          <mxGeometry x="290" y="30" width="230" height="50" as="geometry" />
        </mxCell>
        <mxCell id="YWzn3XSEvazt2WfQ-sxx-11" style="edgeStyle=orthogonalEdgeStyle;rounded=0;orthogonalLoop=1;jettySize=auto;html=1;exitX=0.25;exitY=1;exitDx=0;exitDy=0;entryX=0.2;entryY=0;entryDx=0;entryDy=0;entryPerimeter=0;" edge="1" parent="1" source="YWzn3XSEvazt2WfQ-sxx-10" target="YWzn3XSEvazt2WfQ-sxx-1">
          <mxGeometry relative="1" as="geometry" />
        </mxCell>
        <mxCell id="YWzn3XSEvazt2WfQ-sxx-12" style="edgeStyle=orthogonalEdgeStyle;rounded=0;orthogonalLoop=1;jettySize=auto;html=1;exitX=0.75;exitY=0;exitDx=0;exitDy=0;entryX=0.709;entryY=0.98;entryDx=0;entryDy=0;entryPerimeter=0;" edge="1" parent="1" source="YWzn3XSEvazt2WfQ-sxx-1" target="YWzn3XSEvazt2WfQ-sxx-10">
          <mxGeometry relative="1" as="geometry" />
        </mxCell>
        <mxCell id="YWzn3XSEvazt2WfQ-sxx-17" value="Application" style="text;html=1;align=center;verticalAlign=middle;whiteSpace=wrap;rounded=0;" vertex="1" parent="1">
          <mxGeometry x="370" y="380" width="60" height="30" as="geometry" />
        </mxCell>
        <mxCell id="YWzn3XSEvazt2WfQ-sxx-18" style="edgeStyle=orthogonalEdgeStyle;rounded=0;orthogonalLoop=1;jettySize=auto;html=1;exitX=0.25;exitY=1;exitDx=0;exitDy=0;entryX=0.605;entryY=0.01;entryDx=0;entryDy=0;entryPerimeter=0;" edge="1" parent="1" source="YWzn3XSEvazt2WfQ-sxx-4" target="YWzn3XSEvazt2WfQ-sxx-5">
          <mxGeometry relative="1" as="geometry" />
        </mxCell>
        <mxCell id="YWzn3XSEvazt2WfQ-sxx-19" style="edgeStyle=orthogonalEdgeStyle;rounded=0;orthogonalLoop=1;jettySize=auto;html=1;exitX=0.25;exitY=1;exitDx=0;exitDy=0;entryX=0.605;entryY=0.01;entryDx=0;entryDy=0;entryPerimeter=0;startArrow=block;startFill=1;endArrow=none;" edge="1" parent="1">
          <mxGeometry relative="1" as="geometry">
            <mxPoint x="330" y="310" as="sourcePoint" />
            <mxPoint x="330" y="330" as="targetPoint" />
          </mxGeometry>
        </mxCell>
        <mxCell id="YWzn3XSEvazt2WfQ-sxx-20" style="edgeStyle=orthogonalEdgeStyle;rounded=0;orthogonalLoop=1;jettySize=auto;html=1;exitX=0.25;exitY=1;exitDx=0;exitDy=0;entryX=0.605;entryY=0.01;entryDx=0;entryDy=0;entryPerimeter=0;" edge="1" parent="1">
          <mxGeometry relative="1" as="geometry">
            <mxPoint x="467" y="310" as="sourcePoint" />
            <mxPoint x="468" y="330" as="targetPoint" />
          </mxGeometry>
        </mxCell>
        <mxCell id="YWzn3XSEvazt2WfQ-sxx-21" style="edgeStyle=orthogonalEdgeStyle;rounded=0;orthogonalLoop=1;jettySize=auto;html=1;exitX=0.25;exitY=1;exitDx=0;exitDy=0;entryX=0.605;entryY=0.01;entryDx=0;entryDy=0;entryPerimeter=0;startArrow=block;startFill=1;endArrow=none;" edge="1" parent="1">
          <mxGeometry relative="1" as="geometry">
            <mxPoint x="440" y="310" as="sourcePoint" />
            <mxPoint x="440" y="330" as="targetPoint" />
          </mxGeometry>
        </mxCell>
        <mxCell id="YWzn3XSEvazt2WfQ-sxx-22" style="edgeStyle=orthogonalEdgeStyle;rounded=0;orthogonalLoop=1;jettySize=auto;html=1;exitX=0;exitY=0.25;exitDx=0;exitDy=0;entryX=0.996;entryY=0.84;entryDx=0;entryDy=0;entryPerimeter=0;" edge="1" parent="1" source="YWzn3XSEvazt2WfQ-sxx-5" target="YWzn3XSEvazt2WfQ-sxx-8">
          <mxGeometry relative="1" as="geometry" />
        </mxCell>
        <mxCell id="YWzn3XSEvazt2WfQ-sxx-23" style="edgeStyle=orthogonalEdgeStyle;rounded=0;orthogonalLoop=1;jettySize=auto;html=1;exitX=1.007;exitY=0.92;exitDx=0;exitDy=0;entryX=0;entryY=0.75;entryDx=0;entryDy=0;exitPerimeter=0;" edge="1" parent="1" source="YWzn3XSEvazt2WfQ-sxx-8" target="YWzn3XSEvazt2WfQ-sxx-5">
          <mxGeometry relative="1" as="geometry" />
        </mxCell>
        <mxCell id="YWzn3XSEvazt2WfQ-sxx-24" style="edgeStyle=orthogonalEdgeStyle;rounded=0;orthogonalLoop=1;jettySize=auto;html=1;exitX=1;exitY=0.25;exitDx=0;exitDy=0;entryX=0.003;entryY=0.839;entryDx=0;entryDy=0;entryPerimeter=0;" edge="1" parent="1" source="YWzn3XSEvazt2WfQ-sxx-6" target="YWzn3XSEvazt2WfQ-sxx-7">
          <mxGeometry relative="1" as="geometry" />
        </mxCell>
        <mxCell id="YWzn3XSEvazt2WfQ-sxx-25" style="edgeStyle=orthogonalEdgeStyle;rounded=0;orthogonalLoop=1;jettySize=auto;html=1;exitX=-0.02;exitY=0.919;exitDx=0;exitDy=0;entryX=1;entryY=0.75;entryDx=0;entryDy=0;exitPerimeter=0;" edge="1" parent="1" source="YWzn3XSEvazt2WfQ-sxx-7" target="YWzn3XSEvazt2WfQ-sxx-6">
          <mxGeometry relative="1" as="geometry" />
        </mxCell>
      </root>
    </mxGraphModel>
  </diagram>
</mxfile>
